# xmcd
#
# Track frame offsets: 
#        150
#        11574
#        21336
#        30949
#        41376
#        56010
#        69780
#        82631
#        92517
#        104838
#        115814
#        127152
#
# Disc length: 1867 seconds
#
# Revision: 0
# Processed by: cddbd v1.5.2PL0 Copyright (c) Steve Scherf et al.
# Submitted via: ExactAudioCopyFreeDBPlugin 1.0
#
DISCID=8c07490c
DTITLE=Carl Mann - Greatest Hits Finest Performances
DYEAR=2005
DGENRE=Country
TTITLE0=Mona Lisa
TTITLE1=South Of The Border
TTITLE2=Chinatown
TTITLE3=Because Of You
TTITLE4=If I Could Change You
TTITLE5=When I Grow To Old To Dream
TTITLE6=I Can't Forget You
TTITLE7=Some Enchanted Evening
TTITLE8=Pretend
TTITLE9=Bluer Than Anyone Could Be
TTITLE10=Canadian Sunset
TTITLE11=I Ain't Got No Home
EXTD=
EXTT0=
EXTT1=
EXTT2=
EXTT3=
EXTT4=
EXTT5=
EXTT6=
EXTT7=
EXTT8=
EXTT9=
EXTT10=
EXTT11=
PLAYORDER=
